<svg id="Calque_1" data-name="Calque 1" xmlns="http://www.w3.org/2000/svg" viewBox="0 0 187 196.52"><title>galerie</title><polygon points="75 191 75 166 58 166 58 141 40 141 40 116 23 116 23 90 5 90 5 5 112 5 112 30 129 30 129 55 147 55 147 81 165 81 165 106 182 106 182 180.21 152.31 136.29 131.61 162.32 123.78 153.16 93.81 191 75 191" style="fill:#fff"/><path d="M107,10V35h17V60h18V86h18v25h17v52.91l-16.73-24.79-7.6-11.27L144.2,138.5l-12.74,16-7.85-9-7.48,9.32L91.39,186H80V161H63V136H45V111H28V85H10V10h97M117,0H0V95H18v26H35v25H53v25H70v25H96.24L124,161l7.82,9.07L152,144.69l35,51.83V101H170V76H152V50H134V25H117V0h0Z"/></svg>