<svg id="Calque_1" data-name="Calque 1" xmlns="http://www.w3.org/2000/svg" viewBox="0 0 178.24 196.64"><title>recherche</title><polygon points="80.47 191.64 80.47 174.03 61.6 174.03 61.6 156.43 42.73 156.43 42.73 138.82 23.87 138.82 23.87 121.21 5 121.21 5 5.6 97.77 5.03 97.77 23.66 116.64 23.66 116.64 40.85 135.51 40.85 135.51 58.46 154.37 58.46 154.37 76.07 173.24 76.07 173.24 191.64 80.47 191.64" style="fill:#fff"/><path d="M92.77,10.06v18.6h18.87V45.85h18.87V63.46h18.87V81.07h18.87V186.64H85.47V169H66.6V151.42H47.73V133.82H28.87V116.21H10V10.57l82.77-.51M102.77,0L0,0.63V126.21H18.87v17.61H37.73v17.61H56.6V179H75.47v17.61H178.24V71.07H159.37V53.46H140.51V35.85H121.64V18.66H102.77V0h0Z"/></svg>